<svg xmlns="http://www.w3.org/2000/svg" viewBox="0 0 1024 1024" width="1024" height="1024">
<rect width="1024" height="1024" fill="#FFD23F"/>
<g fill="#1A1A2E" transform="translate(22,22)"><path d="M 610 735 C 910 745 1015 480 935 285 C 875 135 690 115 638 228 C 598 318 700 362 762 402 C 832 452 805 595 640 645 Z"/><ellipse cx="470" cy="545" rx="220" ry="200"/><ellipse cx="330" cy="360" rx="48" ry="74" transform="rotate(-24 330 360)"/><ellipse cx="610" cy="360" rx="48" ry="74" transform="rotate(24 610 360)"/></g>
<path d="M 610 735 C 910 745 1015 480 935 285 C 875 135 690 115 638 228 C 598 318 700 362 762 402 C 832 452 805 595 640 645 Z" fill="#8C889C" stroke="#1A1A2E" stroke-width="26" stroke-linejoin="round" stroke-linecap="round"/>
<path d="M 700 300 C 760 330 800 380 790 440 M 820 230 C 880 280 900 360 880 430" fill="none" stroke="#6E6A80" stroke-width="16" stroke-linecap="round"/>
<g fill="#A6A2B6" stroke="#1A1A2E" stroke-width="26" stroke-linejoin="round" stroke-linecap="round"><ellipse cx="330" cy="360" rx="48" ry="74" transform="rotate(-24 330 360)"/><ellipse cx="610" cy="360" rx="48" ry="74" transform="rotate(24 610 360)"/></g>
<ellipse cx="333" cy="368" rx="20" ry="40" transform="rotate(-24 333 368)" fill="#FF6B9A"/><ellipse cx="607" cy="368" rx="20" ry="40" transform="rotate(24 607 368)" fill="#FF6B9A"/>
<g fill="#A6A2B6" stroke="#1A1A2E" stroke-width="26" stroke-linejoin="round" stroke-linecap="round"><ellipse cx="470" cy="545" rx="220" ry="200"/></g>
<ellipse cx="470" cy="610" rx="150" ry="100" fill="#EDE8F2"/>
<circle cx="390" cy="510" r="38" fill="#1A1A2E"/><circle cx="550" cy="510" r="38" fill="#1A1A2E"/>
<circle cx="377" cy="496" r="13" fill="#fff"/><circle cx="537" cy="496" r="13" fill="#fff"/>
<circle cx="318" cy="595" r="27" fill="#FF6B9A"/><circle cx="622" cy="595" r="27" fill="#FF6B9A"/>
<path d="M 446 556 Q 470 546 494 556 Q 480 580 470 580 Q 460 580 446 556 Z" fill="#FF6B9A" stroke="#1A1A2E" stroke-width="10" stroke-linejoin="round"/>
<path d="M 470 580 V 592" stroke="#1A1A2E" stroke-width="9" stroke-linecap="round"/>
<rect x="453" y="592" width="34" height="28" rx="5" fill="#fff" stroke="#1A1A2E" stroke-width="8"/><path d="M 470 592 V 620" stroke="#1A1A2E" stroke-width="6"/>
<rect x="0" y="742" width="1024" height="300" fill="#FF6B9A"/>
<g stroke="#1A1A2E" stroke-width="10"><path d="M0 850 H1024 M0 950 H1024 M200 742 V850 M520 742 V850 M840 742 V850 M360 850 V950 M680 850 V950 M100 950 V1024 M420 950 V1024 M740 950 V1024"/></g>
<rect x="-30" y="700" width="1084" height="62" fill="#FFE3EC" stroke="#1A1A2E" stroke-width="26" stroke-linejoin="round" stroke-linecap="round"/>
<ellipse cx="470" cy="684" rx="46" ry="52" fill="#D9954F" stroke="#1A1A2E" stroke-width="14"/>
<path d="M 414 664 Q 470 618 526 664 Q 470 680 414 664 Z" fill="#7A4E2A" stroke="#1A1A2E" stroke-width="14" stroke-linejoin="round"/>
<path d="M 452 698 q 6 14 2 26" fill="none" stroke="#F2C08A" stroke-width="10" stroke-linecap="round"/>
<g fill="#A6A2B6" stroke="#1A1A2E" stroke-width="26" stroke-linejoin="round" stroke-linecap="round"><ellipse cx="398" cy="700" rx="46" ry="33"/><ellipse cx="542" cy="700" rx="46" ry="33"/></g>
<path d="M 382 686 V 710 M 412 686 V 710 M 528 686 V 710 M 558 686 V 710" stroke="#1A1A2E" stroke-width="9" stroke-linecap="round"/>
</svg>